<svg width="24" height="24" viewBox="0 0 24 24" fill="none" xmlns="http://www.w3.org/2000/svg">
<path d="M0 12C0 5.37258 5.37258 0 12 0C18.6274 0 24 5.37258 24 12C24 18.6274 18.6274 24 12 24C5.37258 24 0 18.6274 0 12Z" fill="#2F27CE"/>
<path d="M12 12.6673C12.3682 12.6673 12.6667 12.3688 12.6667 12.0007C12.6667 11.6325 12.3682 11.334 12 11.334C11.6319 11.334 11.3334 11.6325 11.3334 12.0007C11.3334 12.3688 11.6319 12.6673 12 12.6673Z" stroke="white" stroke-width="2" stroke-linecap="round" stroke-linejoin="round"/>
<path d="M16.6667 12.6673C17.0349 12.6673 17.3333 12.3688 17.3333 12.0007C17.3333 11.6325 17.0349 11.334 16.6667 11.334C16.2985 11.334 16 11.6325 16 12.0007C16 12.3688 16.2985 12.6673 16.6667 12.6673Z" stroke="#FAFAFA" stroke-width="2" stroke-linecap="round" stroke-linejoin="round"/>
<path d="M7.33329 12.6673C7.70148 12.6673 7.99996 12.3688 7.99996 12.0007C7.99996 11.6325 7.70148 11.334 7.33329 11.334C6.9651 11.334 6.66663 11.6325 6.66663 12.0007C6.66663 12.3688 6.9651 12.6673 7.33329 12.6673Z" stroke="#FAFAFA" stroke-width="2" stroke-linecap="round" stroke-linejoin="round"/>
</svg>
