<svg width="47" height="47" viewBox="0 0 47 47" fill="none" xmlns="http://www.w3.org/2000/svg">
<path d="M8.40876 7.90701C0.157449 16.159 -0.125334 29.3592 7.55651 37.9531L9.78365 36.8974C6.27718 33.2427 4.34713 28.4628 4.34713 23.3819C4.34713 18.1631 6.37859 13.2571 10.0697 9.56728C13.7595 5.8762 18.6655 3.84473 23.8843 3.84473C27.5298 3.84473 31.0214 4.83934 34.0539 6.69529L36.5287 5.52256C32.7505 2.84169 28.3132 1.49994 23.8765 1.49994C18.2787 1.49994 12.681 3.63542 8.40876 7.90701Z" fill="url(#paint0_linear_1010_3498)"/>
<path d="M20.2359 13.2421L31.8851 7.72306C29.3804 6.44567 26.6332 5.80341 23.8841 5.80341C19.3804 5.80341 14.8768 7.51698 11.4476 10.9461C5.89477 16.499 4.83841 24.8712 8.27792 31.4967C11.1909 32.4893 12.8706 33.062 15.7836 34.0547L25.651 29.3788C26.5468 28.9549 27.3145 28.2645 27.7344 27.3668C28.1394 26.5016 28.2285 25.557 28.0101 24.6645L22.8225 27.1237C20.3178 28.3081 17.3184 27.2368 16.1327 24.7353C14.0954 20.4351 15.9364 15.2794 20.2359 13.2421Z" fill="url(#paint1_linear_1010_3498)"/>
<path d="M35.4396 36.6424C41.1751 31.6278 42.8152 23.8335 40.3599 17.2295C36.4836 15.7077 34.4404 14.9055 30.564 13.3843L22.184 17.3543C20.1519 18.3177 19.2821 20.7541 20.2449 22.7869C20.356 23.0209 20.6382 23.1236 20.8741 23.0105L26.8853 20.1613C28.7413 19.283 30.9645 20.0768 31.8434 21.9314C32.8302 24.0142 32.9472 26.3571 32.1723 28.5283C31.3974 30.6982 29.823 32.4372 27.7408 33.4246L15.8771 39.0457C18.5437 40.4128 21.5398 41.0844 24.6419 40.9543C28.6112 40.7879 32.4486 39.2577 35.4396 36.6424Z" fill="url(#paint2_linear_1010_3498)"/>
<path d="M37.9855 9.86785C41.492 13.5225 43.422 18.3025 43.422 23.3821C43.422 28.6008 41.3899 33.5076 37.7001 37.1973C34.0097 40.8878 29.103 42.9205 23.8843 42.9205C20.2393 42.9205 16.7478 41.9266 13.7153 40.07L11.2398 41.2434C19.7849 47.3072 31.7026 46.5154 39.3598 38.8583C47.6117 30.607 47.8939 17.406 40.212 8.81345L37.9855 9.86785Z" fill="url(#paint3_linear_1010_3498)"/>
<defs>
<linearGradient id="paint0_linear_1010_3498" x1="2.0001" y1="19.7266" x2="36.5286" y2="19.7266" gradientUnits="userSpaceOnUse">
<stop stop-color="#5342FF"/>
<stop offset="0.89253" stop-color="#E8B8FF"/>
<stop offset="1" stop-color="#E8B8FF"/>
</linearGradient>
<linearGradient id="paint1_linear_1010_3498" x1="19.0948" y1="5.80341" x2="19.0948" y2="34.0547" gradientUnits="userSpaceOnUse">
<stop stop-color="#443DFF"/>
<stop offset="1" stop-color="#704AF2"/>
</linearGradient>
<linearGradient id="paint2_linear_1010_3498" x1="28.6705" y1="13.3843" x2="28.6705" y2="40.9702" gradientUnits="userSpaceOnUse">
<stop stop-color="#443DFF"/>
<stop offset="1" stop-color="#704AF2"/>
</linearGradient>
<linearGradient id="paint3_linear_1010_3498" x1="11.2404" y1="27.039" x2="45.7688" y2="27.039" gradientUnits="userSpaceOnUse">
<stop stop-color="#5342FF"/>
<stop offset="0.89253" stop-color="#E8B8FF"/>
<stop offset="1" stop-color="#E8B8FF"/>
</linearGradient>
</defs>
</svg>
